{
  "accessors": [
    {
      "bufferView": 2,
      "componentType": 5126,
      "count": 65532,
      "max": [
        5.0,
        5.0,
        1.0
      ],
      "min": [
        -1.0,
        -1.0,
        -5.0
      ],
      "type": "VEC3"
    },
    {
      "bufferView": 2,
      "byteOffset": 786384,
      "componentType": 5126,
      "count": 65532,
      "max": [
        0.9996103644371033,
        0.9996103644371033,
        0.999610424041748
      ],
      "min": [
        -0.9996103644371033,
        -0.9996103644371033,
        -0.9996103644371033
      ],
      "type": "VEC3"
    },
    {
      "bufferView": 1,
      "componentType": 5126,
      "count": 65532,
      "max": [
        0.875,
        1.0
      ],
      "min": [
        0.125,
        0.0
      ],
      "type": "VEC2"
    },
    {
      "bufferView": 0,
      "componentType": 5125,
      "count": 371907,
      "type": "SCALAR"
    },
    {
      "bufferView": 2,
      "byteOffset": 1572768,
      "componentType": 5126,
      "count": 10125,
      "max": [
        5.0,
        5.0,
        1.0
      ],
      "min": [
        -1.0,
        3.0,
        -3.0
      ],
      "type": "VEC3"
    },
    {
      "bufferView": 2,
      "byteOffset": 1694268,
      "componentType": 5126,
      "count": 10125,
      "max": [
        0.9996103644371033,
        0.9996103048324585,
        0.9996103644371033
      ],
      "min": [
        -0.9996103644371033,
        -0.999610185623169,
        -0.9996103644371033
      ],
      "type": "VEC3"
    },
    {
      "bufferView": 1,
      "byteOffset": 524256,
      "componentType": 5126,
      "count": 10125,
      "max": [
        0.875,
        1.0
      ],
      "min": [
        0.125,
        0.0
      ],
      "type": "VEC2"
    },
    {
      "bufferView": 0,
      "byteOffset": 1487628,
      "componentType": 5125,
      "count": 56745,
      "type": "SCALAR"
    },
    {
      "bufferView": 2,
      "byteOffset": 1815768,
      "componentType": 5126,
      "count": 4,
      "max": [
        1.0,
        0.0,
        1.0
      ],
      "min": [
        -1.0,
        0.0,
        -1.0
      ],
      "type": "VEC3"
    },
    {
      "bufferView": 2,
      "byteOffset": 1815816,
      "componentType": 5126,
      "count": 4,
      "max": [
        0.0,
        1.0,
        -0.0
      ],
      "min": [
        0.0,
        1.0,
        -0.0
      ],
      "type": "VEC3"
    },
    {
      "bufferView": 1,
      "byteOffset": 605256,
      "componentType": 5126,
      "count": 4,
      "max": [
        1.0,
        1.0
      ],
      "min": [
        0.0,
        0.0
      ],
      "type": "VEC2"
    },
    {
      "bufferView": 0,
      "byteOffset": 1714608,
      "componentType": 5125,
      "count": 6,
      "type": "SCALAR"
    },
    {
      "bufferView": 2,
      "byteOffset": 1815864,
      "componentType": 5126,
      "count": 1512,
      "max": [
        4.840673923492432,
        -1.0,
        0.8406739234924316
      ],
      "min": [
        -0.8406739234924316,
        -1.0010000467300415,
        -4.840673923492432
      ],
      "type": "VEC3"
    },
    {
      "bufferView": 2,
      "byteOffset": 1834008,
      "componentType": 5126,
      "count": 1512,
      "max": [
        1.0,
        1.0,
        1.0
      ],
      "min": [
        -1.0,
        -1.0,
        -1.0
      ],
      "type": "VEC3"
    },
    {
      "bufferView": 1,
      "byteOffset": 605288,
      "componentType": 5126,
      "count": 1512,
      "max": [
        0.35508427023887634,
        0.7300843000411987
      ],
      "min": [
        0.14491575956344604,
        0.519915759563446
      ],
      "type": "VEC2"
    },
    {
      "bufferView": 0,
      "byteOffset": 1714632,
      "componentType": 5125,
      "count": 2916,
      "type": "SCALAR"
    },
    {
      "bufferView": 2,
      "byteOffset": 1852152,
      "componentType": 5126,
      "count": 1512,
      "max": [
        4.840673923492432,
        5.000999927520752,
        0.8406739234924316
      ],
      "min": [
        -0.8406739234924316,
        5.0,
        -4.840673923492432
      ],
      "type": "VEC3"
    },
    {
      "bufferView": 2,
      "byteOffset": 1870296,
      "componentType": 5126,
      "count": 1512,
      "max": [
        1.0,
        1.0,
        1.0
      ],
      "min": [
        -1.0,
        -1.0,
        -1.0
      ],
      "type": "VEC3"
    },
    {
      "bufferView": 1,
      "byteOffset": 617384,
      "componentType": 5126,
      "count": 1512,
      "max": [
        0.855084240436554,
        0.7300843000411987
      ],
      "min": [
        0.6449158191680908,
        0.519915759563446
      ],
      "type": "VEC2"
    },
    {
      "bufferView": 0,
      "byteOffset": 1726296,
      "componentType": 5125,
      "count": 2916,
      "type": "SCALAR"
    },
    {
      "bufferView": 2,
      "byteOffset": 1888440,
      "componentType": 5126,
      "count": 1512,
      "max": [
        5.000999927520752,
        4.840673923492432,
        0.8406739234924316
      ],
      "min": [
        5.0,
        -0.8406739234924316,
        -4.840673923492432
      ],
      "type": "VEC3"
    },
    {
      "bufferView": 2,
      "byteOffset": 1906584,
      "componentType": 5126,
      "count": 1512,
      "max": [
        1.0,
        1.0,
        1.0
      ],
      "min": [
        -1.0,
        -1.0,
        -1.0
      ],
      "type": "VEC3"
    },
    {
      "bufferView": 1,
      "byteOffset": 629480,
      "componentType": 5126,
      "count": 1512,
      "max": [
        0.605084240436554,
        0.7300843000411987
      ],
      "min": [
        0.39491575956344604,
        0.519915759563446
      ],
      "type": "VEC2"
    },
    {
      "bufferView": 0,
      "byteOffset": 1737960,
      "componentType": 5125,
      "count": 2916,
      "type": "SCALAR"
    },
    {
      "bufferView": 2,
      "byteOffset": 1924728,
      "componentType": 5126,
      "count": 1512,
      "max": [
        4.840673923492432,
        4.840673923492432,
        1.0010000467300415
      ],
      "min": [
        -0.8406739234924316,
        -0.8406739234924316,
        1.0
      ],
      "type": "VEC3"
    },
    {
      "bufferView": 2,
      "byteOffset": 1942872,
      "componentType": 5126,
      "count": 1512,
      "max": [
        1.0,
        1.0,
        1.0
      ],
      "min": [
        -1.0,
        -1.0,
        -1.0
      ],
      "type": "VEC3"
    },
    {
      "bufferView": 1,
      "byteOffset": 641576,
      "componentType": 5126,
      "count": 1512,
      "max": [
        0.605084240436554,
        0.9800843000411987
      ],
      "min": [
        0.39491575956344604,
        0.769915759563446
      ],
      "type": "VEC2"
    },
    {
      "bufferView": 0,
      "byteOffset": 1749624,
      "componentType": 5125,
      "count": 2916,
      "type": "SCALAR"
    },
    {
      "bufferView": 2,
      "byteOffset": 1961016,
      "componentType": 5126,
      "count": 1512,
      "max": [
        4.840673923492432,
        4.840673923492432,
        -5.0
      ],
      "min": [
        -0.8406739234924316,
        -0.8406739234924316,
        -5.000999927520752
      ],
      "type": "VEC3"
    },
    {
      "bufferView": 2,
      "byteOffset": 1979160,
      "componentType": 5126,
      "count": 1512,
      "max": [
        1.0,
        1.0,
        1.0
      ],
      "min": [
        -1.0,
        -1.0,
        -1.0
      ],
      "type": "VEC3"
    },
    {
      "bufferView": 1,
      "byteOffset": 653672,
      "componentType": 5126,
      "count": 1512,
      "max": [
        0.605084240436554,
        0.48008427023887634
      ],
      "min": [
        0.39491575956344604,
        0.26991575956344604
      ],
      "type": "VEC2"
    },
    {
      "bufferView": 0,
      "byteOffset": 1761288,
      "componentType": 5125,
      "count": 2916,
      "type": "SCALAR"
    },
    {
      "bufferView": 2,
      "byteOffset": 1997304,
      "componentType": 5126,
      "count": 1512,
      "max": [
        -1.0,
        4.840673923492432,
        0.8406739234924316
      ],
      "min": [
        -1.0010000467300415,
        -0.8406739234924316,
        -4.840673923492432
      ],
      "type": "VEC3"
    },
    {
      "bufferView": 2,
      "byteOffset": 2015448,
      "componentType": 5126,
      "count": 1512,
      "max": [
        1.0,
        1.0,
        1.0
      ],
      "min": [
        -1.0,
        -1.0,
        -1.0
      ],
      "type": "VEC3"
    },
    {
      "bufferView": 1,
      "byteOffset": 665768,
      "componentType": 5126,
      "count": 1512,
      "max": [
        0.605084240436554,
        0.23008425533771515
      ],
      "min": [
        0.39491575956344604,
        0.019915759563446045
      ],
      "type": "VEC2"
    },
    {
      "bufferView": 0,
      "byteOffset": 1772952,
      "componentType": 5125,
      "count": 2916,
      "type": "SCALAR"
    }
  ],
  "asset": {
    "extras": {
      "author": "formador3d (https://sketchfab.com/formador3d)",
      "license": "CC-BY-4.0 (http://creativecommons.org/licenses/by/4.0/)",
      "source": "https://sketchfab.com/3d-models/rubiks-cube-32180acae749429e97d4f91b14742ecc",
      "title": "Rubik's Cube"
    },
    "generator": "Sketchfab-14.49.0",
    "version": "2.0"
  },
  "bufferViews": [
    {
      "buffer": 0,
      "byteLength": 1784616,
      "name": "floatBufferViews",
      "target": 34963
    },
    {
      "buffer": 0,
      "byteLength": 677864,
      "byteOffset": 1784616,
      "byteStride": 8,
      "name": "floatBufferViews",
      "target": 34962
    },
    {
      "buffer": 0,
      "byteLength": 2033592,
      "byteOffset": 2462480,
      "byteStride": 12,
      "name": "floatBufferViews",
      "target": 34962
    }
  ],
  "buffers": [
    {
      "byteLength": 4496072,
      "uri": "scene.bin"
    }
  ],
  "materials": [
    {
      "doubleSided": true,
      "name": "Black",
      "pbrMetallicRoughness": {
        "baseColorFactor": [
          0.0188488,
          0.0188488,
          0.0188488,
          1.0
        ],
        "metallicFactor": 0.0,
        "roughnessFactor": 0.180995
      }
    },
    {
      "doubleSided": true,
      "name": "WoodFineDark004_2K"
    },
    {
      "doubleSided": true,
      "name": "Green.001",
      "pbrMetallicRoughness": {
        "baseColorFactor": [
          0.0679712,
          0.401969,
          0.0348859,
          1.0
        ],
        "metallicFactor": 0.0,
        "roughnessFactor": 0.5
      }
    },
    {
      "doubleSided": true,
      "name": "Material",
      "pbrMetallicRoughness": {
        "baseColorFactor": [
          0.8,
          0.0,
          0.0010632,
          1.0
        ],
        "metallicFactor": 0.0,
        "roughnessFactor": 0.5
      }
    },
    {
      "doubleSided": true,
      "name": "White",
      "pbrMetallicRoughness": {
        "baseColorFactor": [
          0.8,
          0.8,
          0.8,
          1.0
        ],
        "metallicFactor": 0.0,
        "roughnessFactor": 0.5
      }
    },
    {
      "doubleSided": true,
      "name": "Blue",
      "pbrMetallicRoughness": {
        "baseColorFactor": [
          0.0325407,
          0.0623424,
          0.8,
          1.0
        ],
        "metallicFactor": 0.0,
        "roughnessFactor": 0.5
      }
    },
    {
      "doubleSided": true,
      "name": "Orange",
      "pbrMetallicRoughness": {
        "baseColorFactor": [
          0.626663,
          0.17341,
          0.00769248,
          1.0
        ],
        "metallicFactor": 0.0,
        "roughnessFactor": 0.5
      }
    },
    {
      "doubleSided": true,
      "name": "Yellow",
      "pbrMetallicRoughness": {
        "baseColorFactor": [
          0.626663,
          0.567336,
          0.0,
          1.0
        ],
        "metallicFactor": 0.0,
        "roughnessFactor": 0.5
      }
    }
  ],
  "meshes": [
    {
      "name": "Object_0",
      "primitives": [
        {
          "attributes": {
            "NORMAL": 1,
            "POSITION": 0,
            "TEXCOORD_0": 2
          },
          "indices": 3,
          "material": 0,
          "mode": 4
        }
      ]
    },
    {
      "name": "Object_1",
      "primitives": [
        {
          "attributes": {
            "NORMAL": 5,
            "POSITION": 4,
            "TEXCOORD_0": 6
          },
          "indices": 7,
          "material": 0,
          "mode": 4
        }
      ]
    },
    {
      "name": "Object_2",
      "primitives": [
        {
          "attributes": {
            "NORMAL": 9,
            "POSITION": 8,
            "TEXCOORD_0": 10
          },
          "indices": 11,
          "material": 1,
          "mode": 4
        }
      ]
    },
    {
      "name": "Object_3",
      "primitives": [
        {
          "attributes": {
            "NORMAL": 13,
            "POSITION": 12,
            "TEXCOORD_0": 14
          },
          "indices": 15,
          "material": 2,
          "mode": 4
        }
      ]
    },
    {
      "name": "Object_4",
      "primitives": [
        {
          "attributes": {
            "NORMAL": 17,
            "POSITION": 16,
            "TEXCOORD_0": 18
          },
          "indices": 19,
          "material": 3,
          "mode": 4
        }
      ]
    },
    {
      "name": "Object_5",
      "primitives": [
        {
          "attributes": {
            "NORMAL": 21,
            "POSITION": 20,
            "TEXCOORD_0": 22
          },
          "indices": 23,
          "material": 4,
          "mode": 4
        }
      ]
    },
    {
      "name": "Object_6",
      "primitives": [
        {
          "attributes": {
            "NORMAL": 25,
            "POSITION": 24,
            "TEXCOORD_0": 26
          },
          "indices": 27,
          "material": 5,
          "mode": 4
        }
      ]
    },
    {
      "name": "Object_7",
      "primitives": [
        {
          "attributes": {
            "NORMAL": 29,
            "POSITION": 28,
            "TEXCOORD_0": 30
          },
          "indices": 31,
          "material": 6,
          "mode": 4
        }
      ]
    },
    {
      "name": "Object_8",
      "primitives": [
        {
          "attributes": {
            "NORMAL": 33,
            "POSITION": 32,
            "TEXCOORD_0": 34
          },
          "indices": 35,
          "material": 7,
          "mode": 4
        }
      ]
    }
  ],
  "nodes": [
    {
      "children": [
        1
      ],
      "matrix": [
        1.0,
        0.0,
        0.0,
        0.0,
        0.0,
        2.220446049250313e-16,
        -1.0,
        0.0,
        0.0,
        1.0,
        2.220446049250313e-16,
        0.0,
        0.0,
        0.0,
        0.0,
        1.0
      ],
      "name": "Sketchfab_model"
    },
    {
      "children": [
        2
      ],
      "name": "root"
    },
    {
      "children": [
        3,
        6,
        8
      ],
      "matrix": [
        1.0,
        0.0,
        0.0,
        0.0,
        0.0,
        2.220446049250313e-16,
        1.0,
        0.0,
        0.0,
        -1.0,
        2.220446049250313e-16,
        0.0,
        0.0,
        0.0,
        0.0,
        1.0
      ],
      "name": "GLTF_SceneRootNode"
    },
    {
      "children": [
        4,
        5
      ],
      "matrix": [
        0.007767743329260865,
        -0.005542030317048145,
        0.002991330651281174,
        0.0,
        0.0032216885467670165,
        0.0075780680048866235,
        0.005673940760229665,
        0.0,
        -0.00541136600203731,
        -0.0034436580561787184,
        0.007671918450672025,
        0.0,
        0.0,
        0.029424358159303665,
        0.0,
        1.0
      ],
      "name": "Cube_0"
    },
    {
      "mesh": 0,
      "name": "Object_4"
    },
    {
      "mesh": 1,
      "name": "Object_5"
    },
    {
      "children": [
        7
      ],
      "matrix": [
        1.0,
        0.0,
        0.0,
        0.0,
        0.0,
        1.0,
        0.0,
        0.0,
        0.0,
        0.0,
        1.0,
        0.0,
        0.0,
        -0.011793470941483974,
        0.0,
        1.0
      ],
      "name": "Plane_1"
    },
    {
      "mesh": 2,
      "name": "Object_7"
    },
    {
      "children": [
        9,
        10,
        11,
        12,
        13,
        14
      ],
      "matrix": [
        0.007767743329260865,
        -0.005542030317048145,
        0.002991330651281174,
        0.0,
        0.0032216885467670165,
        0.0075780680048866235,
        0.005673940760229665,
        0.0,
        -0.00541136600203731,
        -0.0034436580561787184,
        0.007671918450672025,
        0.0,
        0.0,
        0.029424358159303665,
        0.0,
        1.0
      ],
      "name": "Cube.001_3"
    },
    {
      "mesh": 3,
      "name": "Object_9"
    },
    {
      "mesh": 4,
      "name": "Object_10"
    },
    {
      "mesh": 5,
      "name": "Object_11"
    },
    {
      "mesh": 6,
      "name": "Object_12"
    },
    {
      "mesh": 7,
      "name": "Object_13"
    },
    {
      "mesh": 8,
      "name": "Object_14"
    }
  ],
  "scene": 0,
  "scenes": [
    {
      "name": "Sketchfab_Scene",
      "nodes": [
        0
      ]
    }
  ]
}
